<svg width="28" height="24" viewBox="0 0 28 24" fill="none" xmlns="http://www.w3.org/2000/svg">
<path d="M2.40297 10.8003H26.3999C26.7182 10.8003 27.0234 10.9267 27.2484 11.1517C27.4734 11.3767 27.5998 11.6819 27.5998 12.0001C27.5998 12.3184 27.4734 12.6235 27.2484 12.8486C27.0234 13.0736 26.7182 13.2 26.3999 13.2H2.40297C2.08475 13.2 1.77957 13.0736 1.55455 12.8486C1.32954 12.6235 1.20312 12.3184 1.20312 12.0001C1.20312 11.6819 1.32954 11.3767 1.55455 11.1517C1.77957 10.9267 2.08475 10.8003 2.40297 10.8003Z" fill="black"/>
<path d="M2.89858 12L12.8501 21.9491C13.0754 22.1744 13.202 22.48 13.202 22.7986C13.202 23.1173 13.0754 23.4228 12.8501 23.6481C12.6248 23.8734 12.3193 24 12.0006 24C11.682 24 11.3764 23.8734 11.1511 23.6481L0.3525 12.8495C0.240763 12.738 0.152111 12.6056 0.0916236 12.4599C0.0311357 12.3141 0 12.1578 0 12C0 11.8422 0.0311357 11.6859 0.0916236 11.5401C0.152111 11.3944 0.240763 11.262 0.3525 11.1505L11.1511 0.351871C11.3764 0.126572 11.682 0 12.0006 0C12.3193 0 12.6248 0.126572 12.8501 0.351871C13.0754 0.577171 13.202 0.882743 13.202 1.20136C13.202 1.51999 13.0754 1.82556 12.8501 2.05086L2.89858 12Z" fill="black"/>
</svg>
