<svg width="91" height="100" viewBox="0 0 91 100" fill="none" xmlns="http://www.w3.org/2000/svg">
<rect width="90.2778" height="100" fill="#F5F5F5"/>
<path d="M29.3036 0.0896454C27.8827 0.421478 26.8106 1.04261 25.5939 2.25933C24.6069 3.23782 23.9007 4.23333 23.22 5.5862C19.1614 13.7034 20.5313 27.0959 26.2235 34.7707C26.9978 35.8172 28.3422 37.1956 29.2611 37.8848C32.2731 40.1566 35.6595 40.2757 38.3738 38.2081C41.1561 36.081 43.062 31.9799 43.7852 26.5599C43.9639 25.1645 43.998 20.8421 43.8278 19.4127C43.1301 13.4396 41.3518 8.49613 38.5695 4.76086C37.8718 3.83342 36.5019 2.43801 35.6425 1.78285C34.8427 1.17875 33.3282 0.395954 32.5369 0.183239C31.8307 -0.0124588 29.9673 -0.0635109 29.3036 0.0896454Z" fill="black"/>
<path d="M62.7499 1.80838C60.1037 2.32741 57.3384 4.35245 55.0496 7.43256C52.1056 11.3891 50.1146 16.6218 49.3658 22.3907C49.1276 24.2285 49.1531 28.3297 49.4084 29.9974C50.004 33.8007 51.2718 36.7106 53.1692 38.5995C54.7943 40.2332 56.8364 40.9905 58.9125 40.7437C63.856 40.1311 68.7314 34.7366 71.335 26.9938C73.4962 20.5698 73.7259 13.8055 71.9562 8.64929C70.2289 3.62071 66.7234 1.01708 62.7499 1.80838Z" fill="black"/>
<path d="M7.86096 29.5803C4.38094 30.1333 1.7603 32.9412 0.577603 37.3997C-0.0945759 39.9608 -0.18817 43.4918 0.339362 46.5975C1.55609 53.8298 5.74232 60.475 10.6943 63.0446C13.2299 64.3549 15.7569 64.5846 17.9266 63.6827C21.1259 62.3554 23.2275 58.9179 23.9167 53.8723C24.0528 52.8598 24.0528 49.8562 23.9082 48.6821C22.8021 39.3056 17.0247 31.0778 10.6007 29.7079C9.84346 29.5462 8.4991 29.4867 7.86096 29.5803Z" fill="black"/>
<path d="M79.972 36.4723C76.9089 37.1275 73.9054 39.2801 71.4123 42.6155C68.7066 46.2402 66.8858 50.971 66.3582 55.7358C66.2221 56.978 66.2476 59.6497 66.4008 60.8494C67.4388 68.9156 72.9184 72.787 79.1211 69.86C82.448 68.2859 85.46 65.0442 87.6127 60.7303C91.6968 52.5621 91.4331 42.9899 86.9916 38.5569C85.1197 36.685 82.5416 35.9193 79.972 36.4723Z" fill="black"/>
<path d="M43.002 51.6091C37.3693 52.6131 30.2647 58.5266 23.9683 67.4436C19.0418 74.4292 15.5703 81.9508 14.5323 87.9068C14.2855 89.3362 14.26 91.8888 14.4812 92.8673C14.8301 94.3903 15.4172 95.3944 16.5573 96.4579C18.4632 98.2192 20.752 99.2573 23.6194 99.6572C25.1084 99.8614 28.1205 99.7848 30.0349 99.4955C32.596 99.0956 34.7572 98.5766 39.5986 97.1812C44.2783 95.8368 45.5886 95.556 46.8819 95.6411C48.5241 95.7517 49.7578 96.1516 53.2974 97.7087C55.833 98.8233 57.2454 99.3508 58.4536 99.6486C62.9632 100.738 66.758 99.3168 70.6635 95.0795C71.8291 93.8203 72.1865 93.2076 72.5524 91.8718C72.7566 91.106 72.7736 90.9358 72.7736 89.1405C72.7736 87.5154 72.7481 87.0559 72.5779 86.12C71.5739 80.4447 68.5874 73.5868 64.2735 67.0607C59.1428 59.3009 53.1187 53.7107 48.0902 52.0516C46.2608 51.4475 44.7037 51.3113 43.002 51.6091Z" fill="black"/>
</svg>
