<svg width="40" height="40" viewBox="0 0 40 40" fill="none" xmlns="http://www.w3.org/2000/svg">
<path fill-rule="evenodd" clip-rule="evenodd" d="M20.0007 3.3335C10.7957 3.3335 3.33398 10.7952 3.33398 20.0002C3.33398 29.2052 10.7957 36.6668 20.0007 36.6668C29.2057 36.6668 36.6673 29.2052 36.6673 20.0002C36.6673 10.7952 29.2057 3.3335 20.0007 3.3335ZM14.1673 15.8335C14.1673 15.0675 14.3182 14.3089 14.6114 13.6012C14.9045 12.8934 15.3342 12.2504 15.8759 11.7087C16.4175 11.167 17.0606 10.7374 17.7683 10.4442C18.4761 10.151 19.2346 10.0002 20.0007 10.0002C20.7667 10.0002 21.5252 10.151 22.233 10.4442C22.9407 10.7374 23.5838 11.167 24.1254 11.7087C24.6671 12.2504 25.0968 12.8934 25.3899 13.6012C25.6831 14.3089 25.834 15.0675 25.834 15.8335C25.834 17.3806 25.2194 18.8643 24.1254 19.9583C23.0315 21.0522 21.5477 21.6668 20.0007 21.6668C18.4536 21.6668 16.9698 21.0522 15.8759 19.9583C14.7819 18.8643 14.1673 17.3806 14.1673 15.8335ZM30.4306 28.3068C29.183 29.8762 27.597 31.1434 25.7909 32.0138C23.9849 32.8843 22.0055 33.3354 20.0007 33.3335C17.9958 33.3354 16.0164 32.8843 14.2104 32.0138C12.4043 31.1434 10.8183 29.8762 9.57065 28.3068C12.2723 26.3685 15.959 25.0002 20.0007 25.0002C24.0423 25.0002 27.729 26.3685 30.4306 28.3068Z" fill="#F3A73A"/>
</svg>
